<svg width="100" height="88" viewBox="0 0 100 88" fill="none" xmlns="http://www.w3.org/2000/svg">
    <path
        d="M56.1421 8.31215C60.0673 17.4206 53.2253 24.4874 47.0316 28.1081C40.838 31.7288 45.6139 10.1734 45.7518 9.13869"
        stroke="#4848F8" stroke-opacity="0.82" stroke-width="4" stroke-linecap="round" />
    <ellipse cx="39.2383" cy="23.9876" rx="18.7419" ry="7.11704" transform="rotate(37.1314 39.2383 23.9876)"
        fill="#008A41" />
    <ellipse cx="4.72538" cy="16.6553" rx="4.72538" ry="16.6553"
        transform="matrix(0.611207 0.79147 0.79147 -0.611207 41 31.3597)" fill="#008A41" />
    <path
        d="M59.6957 66.9915C55.3514 73.6096 45.6486 73.6096 41.3043 66.9915L25.7433 43.2865C20.9415 35.9715 26.1888 26.25 34.9391 26.25L66.0609 26.25C74.8112 26.25 80.0585 35.9714 75.2567 43.2864L59.6957 66.9915Z"
        fill="url(#paint0_linear_6_6)" />
    <g filter="url(#filter0_f_6_6)">
        <path
            d="M21.5203 45.5026L37.0402 69.1582C43.1614 78.488 56.8386 78.488 62.9597 69.1582L78.4797 45.5026C85.2424 35.1949 77.848 21.5 65.5199 21.5H34.4801C22.152 21.5 14.7576 35.1949 21.5203 45.5026Z"
            stroke="#08DFF4" />
    </g>
    <path
        d="M37.8764 68.6096L22.3564 44.9541C16.0301 35.3114 22.9473 22.5 34.4801 22.5H65.5199C77.0527 22.5 83.9699 35.3114 77.6436 44.9541L62.1236 68.6096C56.3974 77.3375 43.6026 77.3375 37.8764 68.6096Z"
        stroke="#08DFF4" />
    <defs>
        <filter id="filter0_f_6_6" x="12.4535" y="15" width="75.093" height="67.6555" filterUnits="userSpaceOnUse"
            color-interpolation-filters="sRGB">
            <feFlood flood-opacity="0" result="BackgroundImageFix" />
            <feBlend mode="normal" in="SourceGraphic" in2="BackgroundImageFix" result="shape" />
            <feGaussianBlur stdDeviation="3" result="effect1_foregroundBlur_6_6" />
        </filter>
        <linearGradient id="paint0_linear_6_6" x1="50.5" y1="81" x2="50.5" y2="8" gradientUnits="userSpaceOnUse">
            <stop stop-color="#E65AE0" />
            <stop offset="1" stop-color="#0F0F64" />
        </linearGradient>
    </defs>
</svg>